<?xml version="1.0" encoding="UTF-8"?>
<svg id="Layer_2" data-name="Layer 2" xmlns="http://www.w3.org/2000/svg" viewBox="0 0 722.95 153.26">
  <defs>
    <style>
      .cls-1 {
        fill: #fefefe;
      }
    </style>
  </defs>
  <g id="Layer_1-2" data-name="Layer 1">
    <g>
      <path class="cls-1" d="m643.04,77.91c-8.05,2.22-18.31,3.37-26.82,1.8,8.87-15.68,18.36-24.13,35.59-24.25,10.31-19.54-15.83-9.3-22.97-2.05-8.52,9.24-21.02,25.37-17.15,37.71,16.39-.34,31.63-1.27,46.68-7.47-36.01,22.55-69.69,24.69-84.61-21.24-.1-14.24-8.19-3.72-7.52,4.74-.95,6.92,21.64,45.6,4.9,38.4-5.22-6.25-4.81-14.63-6.92-21.95-9.31-6.46-4.68,34.86-13.78,24.55-2.6-5.28-1.09-12.08-1.95-18-5.53-3.43-8.43,9.91-13.57,12.13-3.1,2-15.89,12.74-16.72,9.34.32-6.27,1.05-12.96-.52-19.2.02-2.18-1.42-3.52-1.17-5.78-.32-4.4-4.11-10.25-3.29-14.29,13.15-6.35,27.01-12.26,40.29-18.87,11.19-2.83,35.44-26.37,38.45-5.05.63,1.74,4.03.41,4.54-1.26,41.36-58.69-6.02-54.63-47.52-30.7h.01c-13.11,7.65-27.66,13.59-41.78,19.9-2.78-5.21,14.34-27.5,5.76-25.9-3.79,8.13-9.33,15.7-11.24,24.69-.28,5.53-6.36,4.96-10.09,7.02-14.33,4.04-30.52,9.3-44.88,3.8,5.64-4.02,13.25-7.99,18.19-12.46,6.41-4.24,10.66-11.8,13.69-17.87,1.57-.14,0-2.47,1.17-3.46,1.41-2.29.75-7.3-2.09-3.54-1.44,16.4-70.26,43.89-25.13,49.35,16.29,1.07,31.58-2.77,46.62-8.01-.54,3.29,3.19,14.4-.72,15.02-18.91,7.07-38.83,12.75-58.03,16.16-7.74,3.63-27.2,1.65-18.96,15.69-26.26,8.61-53.47,27.84-79.39,39.84-2.14,1.92-6.5,2.52-9.13,2.19-2.87-1.61-1.2-6.05.85-8-.07-.15-.04-.2.12-.11.59-.54,1.17-1.08,1.76-1.62-.18-.51,0-.72.53-.63,3.22-3.41,6.91-6.71,10.72-9.37,1.59-1.04,3.75-2.13,5.74-2.75,10.17-4.49,20.97-10.24,30.98-15,12.38-5.81,25.67-13.77,25.76-28.98l-.07-.08c13.98-.02,21.78,7.68,25.52-11.72.18-.73.37-1.47.55-2.2-21.38-1.2-21.21-15.95-26.47-2.24-1.38.76-4.35-4.04-5.28-5.74-.19-.03-.44.05-.49-.25-11.81,4.38-1.81,20.61,1.35,28.47-18.99,13.34-41.38,22.98-63.29,29.77-.47,1.02-2.36-.12-2.93,1.42-.67.62-2.19.16-3.1.31-13.49,4.71-28.02,7.42-42.48,9-21.54,3.73-85.52,7.25-74.57-28.52,7.14-18,27.03-30.29,39.19-41.86,1.95,1.18,2.19-.98.01-1.08,9.02-6.06,17.97-13.85,28.95-15.54-.09-.16-.02-.18.12-.14,1.22-1.72,3.91.46,5.23-1.6.7-.46,1.8,0,1.56-1.53-.17-.87-.28-2.5.9-2.74,8.97-23.02-58.03,28.05-69.43,26.29-.06.31-.33.16-.5.23h0c-5.78,1.62-33.81,8.05-34.14,2.69,6.26-11.06,17.54-25.57,32.39-21.16,15.94-23.61-19.99-11.12-26,1.03-7.53,8.53-15.25,21.82-13.62,32.82,17.04.29,34.2-.95,49.3-8.62-5.98,6.06-54.44,30.02-52.68,14.24-9.71-7.86-19.79-3.12-20.36,9.92-1.85,6.53,7.2,7.51,11.51,8.62,7.34-.84-19.96,19.73-23.43,20.67-11.87,6.92-25.62,13.05-39.44,16.25-.03.15-.08.26-.26.19-25.06,8.04-51.82,9.84-78.68,11.07-.08.15-.17.3-.25.45,14.88,3.19,30.28,2.92,45.44,3.02,27.1-.98,54.17-3.13,78-17.74.28-.31,1.08-.71,1.48-.92,1.29-.88,2.45-2.26,3.76-2.83,2.46-1.08,4.14-3.97,6.43-5.07.72-1.31,1.27-2.18,2.79-2.25,3.9-5.82,9.74-13.61,11.94-21.18-1.01-3.06,3.93-1.18,5.57-1.79,4.71-1.91,10.67-2.31,15.96-4.03,0,0,0,0,0,0,4.89-2.63,11.47-4.18,16.34-6.53-.54,2.45-3.18,4.83-4.13,7.47-17.33,43.49,44.72,48.79,74.08,45.36.01-.17.1-.25.27-.24,1.75-1.85,5.56.51,7.24-1.53h0c1.39-.53,3.6-.05,5.26-.24.09-.22.24-.35.48-.39,2.79-1.19,7.04-1.73,10.52-1.81.57,0,1.14-.04,1.48-.6.94-1.5,3.05.14,4.01-1.45,7.26-.89,13.88-4.08,21.22-5.58-25.37,22.79-17.47,39.87,15.28,25.33-.01-.33.29-.12.51-.25,4.83-2.55,10.29-5.84,15.01-8.46,1.53-.65,2.51-2.25,3.99-2.54,1.8-1.34,4.39-2.47,6.23-3.92,3.38-2.15,6.9-4.64,10.27-6.58.43-.39,1.44-.83,1.99-1.19,1.88-1.38,3.77-2.68,5.76-3.56.54-.43,1.61-1.05,2.24-1.42.53-.33.98-.82,1.5-1.01,1.52-1.11,3.51-1.86,5-2.73,37.31-22.01,31.58,13.88,40.65-16.93l.1.06-.1-.07c.86-3.03-4.6-3.65-5.22-5.98,10.65-1.15,21.22-2.87,31.31-6.37,11.06-2.49,21.84-7.26,32.49-10.77,5.52,15.77,8.49,32.59,7.23,49.6,9.87,3.46,23.22-9.95,29.22-18.24,1.51,8.47,5.17,23.75,16.05,8.34.57-1.82,2.84-8.93,4.01-8.47,7.02,22.71,17.03,13.85,22.25-3.24.13-5.42,8.03,4.08,11.74,4.24,10.82,4.12,23.65,3.52,34.3,1.25,6.68-1.38,14.38-4.33,20.45-8.26.16-.23.7-.58.99-.68,3.24-2.54,6.68-4.84,9.75-7.57.36-.85,2.35-1.93,3.25-2.64,7.24-6.11,14.1-12.53,21.29-18.6,10.09-9.05,22.6-15.87,36.09-18.46,1.73-1.54.88-6.55,2.62-7.03v-4c-28.43,7.01-50.39,31.46-79.91,35.49Zm-134.1-17.78c-3.68-13.69-2.51-12.98,9.54-18.08.06.09.12.18.17.27,2.43-.91,4.66-2.81,7.3-2.92.08-.32.32-.16.51-.16,18.36-7.39,96.53-55.83,71.33-2.59-1.01-34.19-74.05,21.12-88.85,23.49Z"/>
      <polygon class="cls-1" points="403.71 50.43 403.71 50.43 403.71 50.43 403.71 50.43"/>
      <polygon class="cls-1" points="163.68 117.32 163.68 117.33 163.67 117.33 163.68 117.32"/>
      <path class="cls-1" d="m47.74,48.15h0c2.82-1.17,6.22-2.5,9.01-3.74,10.07-5.22,53.52-15.7,35.8,7.6-3.04-2.01-8.18-10.65-11.51-7.51-1.4,3.51-5.78,7.73-1.68,10.98,1.34,1.65,5.64,4.38,3.93,6.54-7.08,10.39-22.53,18.79-20.83,32.63,5.28,9.17,19.21,4.79,26.54.57.93-.77,1.87-1.55,2.8-2.32,8.72-8.65,11.63-23.09,5.51-34.24,1.98-9.43,14.46-25.18,2.44-32.71C63.12,19.46,29.76,52.02,0,69.66v2c15.23-6.78,29.9-16.25,46.25-22.74.3-.65,1-.39,1.49-.76Zm31.39,38.31c-1.6,2.64-8.2-.35-7.48-2.55,6.29-4.42,12.39-12.29,18.17-16.01,9,11.48.3,15.57-10.69,18.55Z"/>
      <path class="cls-1" d="m284.14,68.69c-7,6.15,22.02,26.47,26.86,32.78,8.63-10.32,23.46-19.25,28.54-30.81-4.09-4.63-9.1-8.6-13.3-13.28-.98-2.32-4.68-3-4.78-5.72-.16-.13-.33-.26-.49-.39-.21.11-.37.07-.49-.14-3.75-1.79-5.97-7.2-10-8.52-9.05,8.14-17.31,17.68-26.34,26.06Z"/>
      <path class="cls-1" d="m87.72,117.36h-.01c16.05-5.8,32.96-14.25,42.58-29.12,11.65-15.45-6.7-28.31-20.09-19.49-.1,2.65-5.96,9.2-2.54,9.68,9.33-2.74,25.71,5.3,11.52,12.74-15.2,10.68-34.65,18.55-51.92,23.02-13.85,5.48-30.03,8.25-44.27,10.97,19.15,4.75,45.27-2.13,64.73-7.78Z"/>
      <path class="cls-1" d="m143.98,104.74c3.37-11.64,2.37-25.12,1.26-37.31-.6-1.24-.24-3.24-.51-4.73-.54-.88-.25-2.43-.49-3.53-3.15-13.35-5.38-35-10.54-6.31,4.1,17,4.05,35.99,10.05,51.89.08-.05.15-.05.23,0Z"/>
      <path class="cls-1" d="m171.74,36.42c.11-.25.66-.51,1.02-.49,10.54-7.02,20.99-14.35,31.48-21.5,19.66-23.29-32.67,14.78-38.39,18.15-5.84,3.71-16.2,10.71-14.28,17.78,6.77-3.76,12.84-10.68,20.17-13.94Z"/>
      <path class="cls-1" d="m66.53,64.82c2.3,2.73,4.98,5.94,7.72,1.84,5.24-3.89,4.86-7.19-.29-10.91-3.77-5.55-6.52,2.32-9.97,3.85-3.47-.13-4.88-6.97-8.4-5.1-6.66,4.93-7.17,8.38-.23,13.4,4.14,3.02,6.67-9.39,11.16-3.07Z"/>
    </g>
  </g>
</svg>