<svg xmlns="http://www.w3.org/2000/svg" width="605.875" height="269.563" viewBox="0 0 605.875 269.563">
  <defs>
    <style>
      .cls-1 {
        fill: #fff;
        fill-rule: evenodd;
      }
    </style>
  </defs>
  <path class="cls-1" d="M229.583,826.075v4.7l-0.855.161H228.14c-2.673,0-4.329-.642-5.879-2.352a11.929,11.929,0,0,1-7.91,2.672,8.634,8.634,0,0,1-5.666-1.71c-2.565.535-4.115,1.176-4.115,1.71s2.031,15.606,2.031,15.606h-4.65s-1.817-12.719-1.817-15.552a5.619,5.619,0,0,1,3.367-5.559,12.142,12.142,0,0,1,2.886-.908,7.968,7.968,0,0,1-.053-1.123c0-4.81,3.955-10.582,8.551-10.582,3.26,0,4.971,2.406,7.376,7,2.458,4.6,2.939,5.773,6.467,5.773Zm-9.674-1.123a1.133,1.133,0,0,1-.16-0.267c-1.764-3.313-3.207-6.52-5.719-6.52-2.726,0-4.65,3.474-4.65,5.452,0,1.068.8,2.672,4.917,2.672A12.371,12.371,0,0,0,219.909,824.952Zm34.31,1.123v4.7l-0.855.161c-5.719,0-8.231-1.71-10.743-5.345a7.347,7.347,0,0,1-2.779,3.42,15.467,15.467,0,0,1-8.284,1.925h-2.779l-0.855-.161v-4.7l0.855-.16h2.832c5.078,0,7.91-1.23,7.91-2.3,0-.374-0.534-1.764-2.4-4.7-1.977-3.1-5.451-7.322-5.718-7.856-0.321-.535.641-4.971,1.282-5.4l17.691-10.8,0.427,4.971-15.285,9.138c1.336,1.657,3.367,4.276,5.344,7.108,4.65,6.682,6.361,9.835,12.507,9.835Zm7.588-14.324a71.667,71.667,0,0,1,1.336,10.85,7.974,7.974,0,0,1-2.459,6.093c-1.55,1.443-4.062,2.245-7.322,2.245l-0.855-.161v-4.7l0.855-.16c4.062,0,5.666-.963,5.666-1.924a78.706,78.706,0,0,0-1.39-11.438Zm-3.635,21.218a19.8,19.8,0,0,1,3.207,3.207,20.877,20.877,0,0,1-3.207,3.154,17.83,17.83,0,0,1-3.1-3.154A17.056,17.056,0,0,1,258.172,832.969Zm45.427-6.894v4.7l-0.855.161c-5.024,0-7.536-1.925-8.765-4.917a12.844,12.844,0,0,1-5.933,1.335c-2.512,0-4.7-.748-6.092-2.564a6.428,6.428,0,0,1-.428-6.575c2.031-3.687,7.055-6.413,11.17-8.444v-3.046l4.329-.321v13.735c0,3.475.909,5.773,5.719,5.773Zm-10.636-4.383c-0.053-.534-0.053-1.069-0.106-1.6-0.107-1.123-.107-3.42-0.161-5.772-5.4,2.459-8.818,5.344-8.818,6.467,0,0.8,1.977,1.71,4.6,1.71A12.244,12.244,0,0,0,292.963,821.692Zm-7.322-20.1a15.385,15.385,0,0,1,2.94-3.046,18.5,18.5,0,0,1,2.619,2.565,15.778,15.778,0,0,1,2.619-2.565,21.414,21.414,0,0,1,2.992,3.046,31.138,31.138,0,0,1-2.992,3.047,23.2,23.2,0,0,1-2.619-2.566,29.665,29.665,0,0,1-2.619,2.566A19.84,19.84,0,0,1,285.641,801.6Zm55.582,20.256c0,7.482-9.406,9.086-18.064,9.086h-0.642c-6.68,0-11.437-1.5-13.2-3.047-1.55,2.833-4.222,3.047-6.734,3.047l-0.855-.161v-4.7l0.855-.16c2.672,0,4.009-.321,4.276-1.23,0.267-.8,1.069-5.719,1.069-5.719h4.008l-0.641,4.6a7.481,7.481,0,0,0,2.619,1.23c3.26-5.185,9.62-14.164,17-14.164C336.787,810.629,341.223,817.15,341.223,821.853Zm-3.688.535c0-1.657-2.939-6.735-7.482-6.735-5.184,0-10.154,5.879-12.933,9.888a39.995,39.995,0,0,0,5.664.427h0.642C329.946,825.968,337.535,824.739,337.535,822.388Zm13.359-1.657c0,4.115,1.283,5.184,5.665,5.184l0.855,0.16v4.7l-0.855.161H355.7c-5.558,0-9.192-1.978-9.192-13.2V794.542l4.382-.268v26.457Zm41.793,5.344v4.7l-0.855.161h-0.427c-6.361,0-8.5-3.849-9.033-8.5a50.686,50.686,0,0,0-9.406,4.329,29.584,29.584,0,0,1-15.5,4.169h-0.909l-0.855-.161v-4.7l0.855-.16h0.8a32.734,32.734,0,0,0,14.324-2.833c1.015-.481,2.833-1.283,4.7-2.085a20.413,20.413,0,0,1-2.672-1.122c-3.207-1.549-6.093-2.993-8.658-2.993a13.305,13.305,0,0,0-5.5,1.39V814a10.094,10.094,0,0,1,5.986-1.872c3.153,0,6.2,1.711,9.353,3.154,3.581,1.764,6.734,2.138,10.9,2.138h2.192l-0.481,4.6h-2.3c0.481,1.871,1.6,3.9,6.253,3.9h0.374Zm-23.142-18.813a17.056,17.056,0,0,1,3.1-3.207,19.8,19.8,0,0,1,3.207,3.207,20.845,20.845,0,0,1-3.207,3.153A17.806,17.806,0,0,1,369.545,807.262Zm21.376,23.516v-4.7l0.855-.16c4.329,0,6.093-.641,6.093-1.924V794.542l4.436-.268v26.3c0,4.65-1.55,7.109-3.367,8.551-1.176.963-3.367,1.818-7.162,1.818Zm17.529-36.236,4.383-.268v36.665H408.45v-36.4Zm45.427,31.533v4.7l-0.855.161c-5.024,0-7.535-1.925-8.765-4.917a12.839,12.839,0,0,1-5.932,1.335,7.293,7.293,0,0,1-6.093-2.564,6.43,6.43,0,0,1-.427-6.575c2.031-3.687,7.054-6.413,11.169-8.444v-3.046l4.33-.321v13.735c0,3.475.908,5.773,5.718,5.773Zm-10.635-4.383c-0.054-.534-0.054-1.069-0.107-1.6-0.107-1.123-.107-3.42-0.161-5.772-5.4,2.459-8.818,5.344-8.818,6.467,0,0.8,1.977,1.71,4.6,1.71A12.251,12.251,0,0,0,443.242,821.692Zm-7.322-20.1a15.363,15.363,0,0,1,2.939-3.046,18.5,18.5,0,0,1,2.619,2.565,15.778,15.778,0,0,1,2.619-2.565,21.452,21.452,0,0,1,2.993,3.046,31.216,31.216,0,0,1-2.993,3.047,23.2,23.2,0,0,1-2.619-2.566,29.665,29.665,0,0,1-2.619,2.566A19.805,19.805,0,0,1,435.92,801.6Zm34.524,24.478v4.7l-0.855.161c-3.154,0-6.788-.321-8.926-2.78a5.616,5.616,0,0,1-.8.8c-1.282,1.069-3.366,1.978-6.947,1.978l-0.855-.161v-4.7l0.855-.16c4.6,0,5.718-1.283,5.879-2.138,0.213-1.176.962-7.8,1.015-8.284h4.169l-0.962,9.032c1.39,0.962,4.062,1.39,6.574,1.39Zm-4.6-13.629a45.984,45.984,0,0,1-8.711.962v-2.672a12.172,12.172,0,0,0,1.5-.107,3.261,3.261,0,0,1-.641-1.871c0-1.977,1.764-4.329,4.062-4.329a3.178,3.178,0,0,1,2.405,1.176l-0.428,2.566a3.044,3.044,0,0,0-2.084-.856,2.012,2.012,0,0,0-2.138,1.443c0,0.535.641,1.5,2.3,1.5a17.553,17.553,0,0,0,3.741-.588v2.779Zm21.27,13.629v4.7l-0.854.161c-3.154,0-6.788-.321-8.926-2.78a5.616,5.616,0,0,1-.8.8c-1.282,1.069-3.367,1.978-6.948,1.978l-0.855-.161v-4.7l0.855-.16c4.6,0,5.719-1.283,5.879-2.138,0.214-1.176.962-7.8,1.016-8.284h4.169l-0.962,9.032c1.389,0.962,4.062,1.39,6.574,1.39ZM475.306,809.56a17.022,17.022,0,0,1,3.1-3.207,19.845,19.845,0,0,1,3.207,3.207,20.927,20.927,0,0,1-3.207,3.154A17.793,17.793,0,0,1,475.306,809.56ZM510.9,826.075v4.7l-0.855.161h-4.116a6.119,6.119,0,0,1,2.085,4.6c0,3.367-2.512,6.413-7.7,6.413-4.863,0-9.994-3.581-11.169-11.223-1.016.107-2.085,0.214-2.94,0.214l-0.856-.161v-4.7l0.856-.16h2.832c0.749-9.46,4.864-14.377,8.872-14.377,4.223,0,6.841,5.986,6.841,9.406a8.037,8.037,0,0,1-3.42,6.146l0.053,0.054a9.019,9.019,0,0,1,4.757-1.229h3.9Zm-18.706-.16c6.574-.054,8.765-2.726,8.765-4.383,0-1.71-1.764-4.971-3.741-4.971C494.866,816.561,492.675,819.982,492.194,825.915Zm12.079,9.566c0-3.1-4.169-5.558-8.979-5.718-0.856.16-1.818,0.427-2.993,0.588,1.015,3.688,3.794,6.68,8.39,6.68C502.83,837.031,504.273,836.229,504.273,835.481Zm23.354-9.406v4.7l-0.855.161c-3.153,0-6.788-.321-8.925-2.78a5.668,5.668,0,0,1-.8.8c-1.283,1.069-3.367,1.978-6.948,1.978l-0.855-.161v-4.7l0.855-.16c4.6,0,5.718-1.283,5.879-2.138,0.214-1.176.962-7.8,1.015-8.284h4.169l-0.962,9.032c1.39,0.962,4.062,1.39,6.574,1.39ZM513.3,809.239a15.363,15.363,0,0,1,2.939-3.046,18.5,18.5,0,0,1,2.619,2.565,15.778,15.778,0,0,1,2.619-2.565,21.452,21.452,0,0,1,2.993,3.046,31.085,31.085,0,0,1-2.993,3.047,23.1,23.1,0,0,1-2.619-2.566,29.5,29.5,0,0,1-2.619,2.566A19.753,19.753,0,0,1,513.3,809.239Zm12.558,21.539v-4.7l0.855-.16c4.33,0,6.093-.641,6.093-1.924V794.542l4.436-.268v26.3c0,4.65-1.55,7.109-3.367,8.551-1.176.963-3.367,1.818-7.162,1.818Zm17.529-36.236,4.383-.268v36.665h-4.383v-36.4ZM605.6,826.075v4.7l-0.855.161c-3.848,0-5.933-1.39-7.215-4.008a7.15,7.15,0,0,1-1.871,2.083,8.173,8.173,0,0,1-1.817,1.07,3.623,3.623,0,0,1,1.23,2.511,9.021,9.021,0,0,1-1.871,5.933c-1.978,2.459-7.108,5.825-14.591,5.825-10.154,0-12.613-6.627-12.613-11.33a24.5,24.5,0,0,1,2.031-9.621h4.115s-2.191,4.6-2.191,8.5c0,2.672,1.122,7.43,9.086,7.43,6.68,0,12.239-3.581,12.239-5.078,0-1.55-2.993-3.313-7-3.313l1.443-5.024H588.5c4.383,0,6.147-1.5,6.147-2.726V794.7l4.382-.429v24.585c0,4.116.161,7.056,5.719,7.056Zm21.589,1.123c-4.917,2.458-12.827,3.741-21.538,3.741h-0.962l-0.855-.161v-4.7l0.855-.16h1.175c1.5,0,2.993-.108,4.223-0.214a9.355,9.355,0,0,1-2.459-6.093,9.613,9.613,0,0,1,9.567-9.727,7.915,7.915,0,0,1,5.665,2.244l-0.641,4.223a10.385,10.385,0,0,0-5.238-1.443c-3.527,0-5.932,2.619-5.932,4.863,0,1.07,1.924,4.81,6.734,4.81,3.26,0,7.215-1.5,8.979-2.19Zm37.142-32.656,4.436-.268v35.275a9.608,9.608,0,0,1-2.779,6.895,14.42,14.42,0,0,1-10.529,4.221c-9.566,0-11.6-6.787-11.6-11.383a24.071,24.071,0,0,1,2.031-9.567h4.115s-2.191,4.543-2.191,8.444c0,2.566.588,7.483,7.963,7.483,5.077,0,8.551-2.779,8.551-4.223V794.542Zm29.341,31.586v4.65l-0.856.161h-3.1c-1.123,5.5-4.543,10.422-11.064,10.422a12.752,12.752,0,0,1-5.718-1.176l-0.16-4.6a16.457,16.457,0,0,0,5.878.963,7.674,7.674,0,0,0,7.59-5.612H680.47c-4.542,0-7.589-2.192-7.589-7.055,0-4.436,3.421-10.743,8.765-10.743,5.5,0,8.391,7.108,8.551,12.774h2.619Zm-13.148-.106h6.039c-0.481-3.688-2.458-7.857-5.719-7.857-2.939,0-4.81,3.314-4.81,5.5C676.034,825.487,678.546,826.022,680.524,826.022Zm56.917,0.053v4.7l-0.854.161c-2.993,0-6.307-.588-8.605-2.886-3.527,2.244-9.193,2.886-14.591,2.886H712.75c-6.681,0-11.437-1.5-13.2-3.047-1.55,2.833-4.223,3.047-6.734,3.047l-0.856-.161v-4.7l0.856-.16c2.672,0,4.008-.321,4.276-1.23,0.266-.8,1.068-5.719,1.068-5.719h4.008l-0.641,4.6a7.49,7.49,0,0,0,2.619,1.23c3.26-5.185,9.62-14.164,17-14.164,5.879,0,10.315,6.521,10.315,11.224a7.634,7.634,0,0,1-.535,2.832,11.117,11.117,0,0,0,5.666,1.23Zm-9.673-3.687c0-1.657-2.939-6.735-7.482-6.735-5.185,0-10.155,5.879-12.934,9.888a40.009,40.009,0,0,0,5.665.427h0.641C720.179,825.968,727.768,824.739,727.768,822.388Zm44.945,3.687v4.7l-0.856.161H771.43c-6.36,0-8.5-3.849-9.033-8.5a50.716,50.716,0,0,0-9.406,4.329,29.584,29.584,0,0,1-15.5,4.169h-0.909l-0.855-.161v-4.7l0.855-.16h0.8a32.729,32.729,0,0,0,14.323-2.833c1.016-.481,2.833-1.283,4.7-2.085a20.413,20.413,0,0,1-2.672-1.122c-3.206-1.549-6.093-2.993-8.658-2.993a13.305,13.305,0,0,0-5.5,1.39V814a10.094,10.094,0,0,1,5.986-1.872c3.153,0,6.2,1.711,9.353,3.154,3.581,1.764,6.734,2.138,10.9,2.138h2.191l-0.481,4.6h-2.3c0.481,1.871,1.6,3.9,6.253,3.9h0.374Zm16.191,0v4.7l-0.855.161c-3.848,0-5.932-1.39-7.215-3.956a7.363,7.363,0,0,1-1.871,2.138c-1.176.963-3.367,1.818-7.161,1.818l-0.856-.161v-4.7l0.856-.16c4.329,0,6.093-.641,6.093-1.924V794.542l4.435-.268v25.067c0.054,3.848.428,6.574,5.719,6.574Zm-1.765,4.7v-4.7l0.855-.16c4.33,0,6.093-.641,6.093-1.924V794.542l4.436-.268v26.3c0,4.65-1.55,7.109-3.367,8.551-1.176.963-3.367,1.818-7.162,1.818Zm-548-115.567a12.855,12.855,0,0,1-4.145,9.87,5.883,5.883,0,0,1-1.645,1.053,4.18,4.18,0,0,1,.658,2.237,13.722,13.722,0,0,1-2.962,9.344c-2.763,3.356-8.817,7.041-17.569,7.041-13.029,0-16.845-8.291-16.845-16.055a32.331,32.331,0,0,1,2.7-12.5h6.909s-2.7,5.922-2.7,10.725c0,3.685,1.513,9.082,11.055,9.082,7.7,0,13.819-3.752,13.819-5.134s-2.9-2.96-8.423-2.96h-0.066l1.514-8.686H224.6c5.659,0,7.172-1.119,7.172-2.041a109.452,109.452,0,0,0-1.776-14.081l7.5-1.382A80.256,80.256,0,0,1,239.138,715.211ZM224.2,752.126a40.32,40.32,0,0,1-4.54,4.607,36.252,36.252,0,0,1-3.817-3.817,45.178,45.178,0,0,1-3.816,3.817,28.879,28.879,0,0,1-4.475-4.607,27.625,27.625,0,0,1,4.475-4.672,44.828,44.828,0,0,1,3.816,3.817,36.027,36.027,0,0,1,3.817-3.817A37.812,37.812,0,0,1,224.2,752.126Zm4.54-57.051a25.458,25.458,0,0,1,4.738-4.935,33.7,33.7,0,0,1,4.936,4.935,40.276,40.276,0,0,1-4.936,4.869A29.033,29.033,0,0,1,228.741,695.075Zm46.849,24.347v8.291l-1.053.2c-4.54,0-8.16-1.054-10.594-5.594a7.813,7.813,0,0,1-2.895,3.883c-1.711,1.119-4.8,2.039-8.884,2.039-4.869,0-8.028-1.118-9.081-1.71l-0.46-8.489a29.621,29.621,0,0,0,9.936,1.514,24.629,24.629,0,0,0,7.9-1.054c-1.974-5.724-5.988-19.345-5.988-19.345l7.633-1.119,3.554,11.647c2.566,7.831,3.487,9.542,8.883,9.542ZM295,723.239l-4.014,8.093c-6.712-3.421-8.159-3.421-13.884-3.421h-2.7l-0.922-.2v-8.291l0.922-.2h1.645a32.2,32.2,0,0,1,5.527.46,15.953,15.953,0,0,1-1.908-7.633V683.3l7.7-.526v31.651C287.367,718.106,295,723.239,295,723.239Zm3.026-40.009,7.7-.46v45.141h-7.7V683.23Zm31.056,28.361h6.975s-2.764,5.462-2.764,10.332c0,3.355.724,9.277,9.673,9.277,6.646,0,10.989-3.092,10.989-4.277,0-3.948-2.961-18.885-2.961-18.885l7.633-1.316c1.185,5.33,2.567,12.963,2.567,17.569a14.382,14.382,0,0,1-4.738,10.924c-2.633,2.5-7.633,4.672-14.082,4.672-13.1,0-15.99-9.081-15.99-16.188A29.231,29.231,0,0,1,329.082,711.591ZM343.3,699.418a33.72,33.72,0,0,1,4.935,4.935,40.354,40.354,0,0,1-4.935,4.87,29.031,29.031,0,0,1-4.737-4.87A25.436,25.436,0,0,1,343.3,699.418Zm23.161-16.188,7.7-.46v45.141h-7.7V683.23Zm50.668,36.192v8.291l-1.053.2h-1.579c-7.7-.066-10.529-4.212-10.99-12.5-1.25,2.172-4.145,2.895-6.843,2.895a5.937,5.937,0,0,1-2.7-.526v0.066a26.779,26.779,0,0,1-.46,8.094c-1.251,5.988-5.2,14.871-15.135,14.871a9.623,9.623,0,0,1-4.8-1.119l-0.527-8.291a13.564,13.564,0,0,0,4.672.724c6.646,0,9.541-5.922,9.541-11.647,0-1.448-1.382-5.462-4.014-14.279l7.568-1.449s0.395,1.119.921,2.764c0.921,1.909,1.842,2.369,4.409,2.369,5.33,0,6.448-1.644,7.041-2.763v-2.83l7.3-.526,0.131,8.817c0.132,4.541.2,6.581,3.949,6.647h1.513Zm-3.883,15.135a38.086,38.086,0,0,1-4.408,4.474,33.588,33.588,0,0,1-3.685-3.685,48.332,48.332,0,0,1-3.751,3.685,30.548,30.548,0,0,1-4.343-4.474,29.006,29.006,0,0,1,4.343-4.541,48.548,48.548,0,0,1,3.751,3.685,33.693,33.693,0,0,1,3.685-3.685A35.657,35.657,0,0,1,413.241,734.557Zm45.731-15.135v8.291l-1.053.2c-3.619,0-7.3-.725-10-3.554-4.343,2.632-10.858,3.554-17.964,3.554H416.068l-1.052-.264v-8.225l1.052-.2h1.316c0.922-1.514,1.975-3.159,3.224-4.87V683.23l7.7-.46v16.714a17.342,17.342,0,0,1-2.368,8.489c4.145-4.278,9.015-7.634,14.082-7.634,7.764,0,13.16,8.094,13.16,14.674a13.827,13.827,0,0,1-.461,3.422,14.313,14.313,0,0,0,5.2.79ZM446.732,716c0-1.515-3.29-6.91-8.751-6.91-6.252,0-12.24,5.791-15.727,10.331h8.488C439.494,719.422,446.732,718.04,446.732,716Zm32.635,3.421v8.291l-1.053.2c-4.869,0-7.5-1.843-9.015-5.331a11.177,11.177,0,0,1-2.566,2.9c-1.382,1.118-4.079,2.435-8.817,2.435l-1.053-.2v-8.291l1.053-.2c4.54,0,6.119-.659,6.119-2.041V683.23l7.7-.46v28.361c0.066,4.87.461,8.094,6.58,8.094Zm-2.107,8.291v-8.291l1.053-.2c4.54,0,6.12-.659,6.12-2.041V683.23l7.7-.46v30.335c0,6.383-2.3,10.265-5,12.371-1.382,1.118-4.08,2.435-8.818,2.435Zm65.208-8.291v8.291l-1.053.2c-6.383,0-9.871-2.172-11.713-6.45a11.709,11.709,0,0,1-7.436,2.3,9.224,9.224,0,0,1-8.028-3.883,10.606,10.606,0,0,1,.132-10.725c2.829-4.41,8.488-7.305,13.489-9.542V695.6l7.37-.46v17.372c0,4.54.856,6.712,6.186,6.712Zm-14.346-4.87c-0.065-1.249-.2-2.631-0.2-4.013,0-.724-0.066-1.909-0.066-3.291-7.172,2.632-10.528,5.33-10.528,6.449,0,0.789,2.3,1.711,5.2,1.711A18.044,18.044,0,0,0,528.122,714.552Zm-10.2-26.057a27.581,27.581,0,0,1,4.475-4.672,44.737,44.737,0,0,1,3.816,3.816,36.074,36.074,0,0,1,3.817-3.816,37.73,37.73,0,0,1,4.54,4.672,40.267,40.267,0,0,1-4.54,4.606,36.139,36.139,0,0,1-3.817-3.817A44.836,44.836,0,0,1,522.4,693.1,28.851,28.851,0,0,1,517.923,688.5Zm52.114,28.755c0,4.541-2.172,11.121-11.779,11.121-3.422,0-7.7-.855-10.792-3.158-1.448,1.71-3.356,2.7-6.646,2.7l-1.052-.2v-8.291l1.052-.2c4.212,0,5.067-1.053,7.238-5.133,2.83-5.659,5.857-10.66,11.45-10.66C565.957,703.432,570.037,711.394,570.037,717.25Zm-6.515.856c0-1.842-2.3-5.922-5.528-5.922-2.829,0-4.935,2.237-6.645,5.462a2.776,2.776,0,0,1-.263.657,17.043,17.043,0,0,0,7.238,1.514C561.482,719.817,563.522,719.027,563.522,718.106ZM582.8,713.17c0,5.067,1.184,6.055,6.185,6.055l1.053,0.2v8.291l-1.053.2H587.34c-8.488,0-12.239-4.409-12.239-19.412V683.23l7.7-.46v30.4Zm42.573,6.252v8.291l-1.053.2h-4.146c-6.843,0-10.462-1.119-14.147-3.817a34.645,34.645,0,0,1-16.056,3.817h-1.053l-0.987-.2v-8.291l0.987-.2h5a57.385,57.385,0,0,0,6.12-.329,104.785,104.785,0,0,0-8.489-7.5v-7.37c2.04-.987,9.607-2.764,16.122-2.764s11.581,1.317,13.752,2.633c0,1.513,0,5.593-.46,6.975-0.526,1.447-2.7,4.934-7.239,8.291,0.922,0.066,1.909.066,3.093,0.066h7.5Zm-18.162-10.331a39.564,39.564,0,0,0-8.423.855c1.711,1.382,3.356,2.895,4.87,4.212,1.316,1.118,2.369,2.04,3.356,2.763a24.238,24.238,0,0,0,8.949-6.843A35.284,35.284,0,0,0,607.211,709.091Zm16.053,18.622v-8.291l1.053-.2c4.54,0,6.12-.659,6.12-2.041V683.23l7.7-.46v30.335c0,6.383-2.3,10.265-5,12.371-1.382,1.118-4.08,2.435-8.818,2.435Zm21.582-44.483,7.7-.46v45.141h-7.7V683.23Zm58.035,36.192v8.291l-1.053.2c-6.383,0-9.871-2.172-11.713-6.45a11.709,11.709,0,0,1-7.436,2.3,9.225,9.225,0,0,1-8.028-3.883,10.608,10.608,0,0,1,.132-10.725c2.83-4.41,8.489-7.305,13.49-9.542V695.6l7.369-.46v17.372c0,4.54.856,6.712,6.186,6.712Zm-14.345-4.87c-0.066-1.249-.2-2.631-0.2-4.013,0-.724-0.065-1.909-0.065-3.291-7.173,2.632-10.529,5.33-10.529,6.449,0,0.789,2.3,1.711,5.2,1.711A18.057,18.057,0,0,0,688.536,714.552Zm-10.2-26.057a27.581,27.581,0,0,1,4.475-4.672,44.737,44.737,0,0,1,3.816,3.816,36.074,36.074,0,0,1,3.817-3.816,37.73,37.73,0,0,1,4.54,4.672,40.267,40.267,0,0,1-4.54,4.606,36.139,36.139,0,0,1-3.817-3.817,44.836,44.836,0,0,1-3.816,3.817A28.851,28.851,0,0,1,678.336,688.5Zm44.875,30.927v8.291l-1.052.2c-4.146,0-8.292-.527-10.924-4.015a6.963,6.963,0,0,1-1.842,1.843c-1.711,1.382-4.211,2.172-8.16,2.172l-1.052-.2v-8.291l1.052-.2c4.8,0,6.054-1.382,6.252-2.369,0.394-2.106.986-8.357,1.25-10.529h7.436l-1.053,11.582a15.482,15.482,0,0,0,7.041,1.316Zm-4.935-17.043a59.124,59.124,0,0,1-12.107,1.316v-4.54a15.711,15.711,0,0,0,1.974-.132,4.508,4.508,0,0,1-.79-2.5,5.976,5.976,0,0,1,5.659-5.923,4.767,4.767,0,0,1,3.422,1.514l-0.658,4.277a4.205,4.205,0,0,0-2.83-.987c-1.776,0-2.763,1.185-2.763,1.645,0,0.526.724,1.579,2.961,1.579a18.609,18.609,0,0,0,5.132-.855v4.606Zm25.859,17.043v8.291l-1.053.2c-4.145,0-8.291-.527-10.923-4.015a6.977,6.977,0,0,1-1.842,1.843c-1.711,1.382-4.212,2.172-8.16,2.172l-1.053-.2v-8.291l1.053-.2c4.8,0,6.054-1.382,6.251-2.369,0.395-2.106.987-8.357,1.251-10.529h7.435l-1.052,11.582a15.481,15.481,0,0,0,7.04,1.316Zm-4.146,16.254a38.086,38.086,0,0,1-4.408,4.474,33.693,33.693,0,0,1-3.685-3.685,48.548,48.548,0,0,1-3.751,3.685,30.548,30.548,0,0,1-4.343-4.474,29.006,29.006,0,0,1,4.343-4.541,48.548,48.548,0,0,1,3.751,3.685,33.693,33.693,0,0,1,3.685-3.685A35.657,35.657,0,0,1,739.989,735.676Zm35.4-16.254v8.291l-1.053.2h-4.475a6.364,6.364,0,0,1,2.04,4.54c0,4.87-3.75,9.212-10.989,9.212-7.435,0-13.16-5.33-14.476-13.95a31.337,31.337,0,0,1-3.356.2l-1.053-.2v-8.291l1.053-.2h3.158c1.25-10.924,6.58-17.767,12.174-17.767s9.475,7.369,9.475,12.239a12.088,12.088,0,0,1-2.895,7.107,8.961,8.961,0,0,1,5.33-1.579h4.014Zm-24.676-.2c8.093,0,10.528-2.435,10.528-3.949,0-1.645-2.04-5.067-4.277-5.067C753.806,710.209,751.372,713.9,750.714,719.225Zm14.476,12.5c0-2.369-3.158-4.87-8.751-5.33a45.041,45.041,0,0,1-5.528.856c1.316,3.224,4.541,6.119,10,6.119C763.743,733.372,765.19,732.385,765.19,731.727Zm8.027-4.014v-8.291l1.053-.2c4.54,0,6.119-.659,6.119-2.041V683.23l7.7-.46v30.335c0,6.383-2.3,10.265-5,12.371-1.381,1.118-4.079,2.435-8.817,2.435ZM794.8,683.23l7.7-.46v45.141h-7.7V683.23ZM226.74,614.042v8.225l-1.053.2h-3.356c-1.711,7.041-6.317,12.9-14.871,12.9a17.659,17.659,0,0,1-8.028-1.58l-0.264-7.567a25.366,25.366,0,0,0,8.16,1.251c5.133,0,7.962-2.172,9.344-5h-7.041c-6.251,0-10.265-3.289-10.265-10.4,0-6.12,4.869-14.082,11.91-14.082,7.173,0,11.253,8.423,11.779,15.793h2.632Zm-9.805.131c-0.921-3.356-3.29-7.435-7.37-7.435a6.057,6.057,0,0,0-5.725,5.33c0,1.645,3.027,2.105,5.528,2.105h7.567Zm20.923-17.9a87.7,87.7,0,0,1,1.645,13.489,12.856,12.856,0,0,1-4.146,9.871c-2.1,1.776-5.33,2.829-9.607,2.829l-1.053-.2v-8.291l1.053-.2c4.935,0,6.383-1.119,6.383-2.041a109.482,109.482,0,0,0-1.776-14.082Zm-6.449,28.756a33.666,33.666,0,0,1,4.935,4.935,40.227,40.227,0,0,1-4.935,4.869,29.033,29.033,0,0,1-4.738-4.869A25.458,25.458,0,0,1,231.409,625.031Zm39.81-10.989v8.225l-1.053.2H266.81c-1.711,7.041-6.317,12.9-14.872,12.9a17.664,17.664,0,0,1-8.028-1.58l-0.263-7.567a25.359,25.359,0,0,0,8.16,1.251c5.132,0,7.962-2.172,9.344-5H254.11c-6.252,0-10.265-3.289-10.265-10.4,0-6.12,4.869-14.082,11.91-14.082,7.172,0,11.252,8.423,11.778,15.793h2.633Zm-9.805.131c-0.921-3.356-3.29-7.435-7.37-7.435a6.057,6.057,0,0,0-5.725,5.33c0,1.645,3.027,2.105,5.528,2.105h7.567Zm60.01-.2v8.291l-1.053.2c-5.33,0-8.16-1.447-9.871-3.685-1.579,2.369-3.882,3.685-8.422,3.685-4.014,0-6.252-1.382-7.7-3.487-1.25,1.842-3.29,3.487-7.37,3.487-3.948,0-6.054-1.184-7.436-3.882-2.106,3.291-5.2,3.882-9.344,3.882l-1.053-.2v-8.291l1.053-.2c4.146,0,5.4-.395,5.593-1.251,0.329-1.184,1.251-7.37,1.251-7.37h7.041c-0.33,2.7-.658,5.4-1.053,7.962a7.608,7.608,0,0,0,4.014.724c2.368,0,3.356-.527,3.685-1.447,0.395-2.172,1.184-8.029,1.381-9.542h7.239c-0.329,3.29-.658,6.712-1.119,10.068a7.372,7.372,0,0,0,4.212.987,13.531,13.531,0,0,0,4.408-.658c-0.329-3.685-.789-11.845-0.789-11.845l7.5-.657s0.395,5.922.593,8.027c0.328,3.225.921,5,6.185,5Zm20.922,0v8.291l-1.053.2c-4.146,0-8.291-.526-10.923-4.014a6.979,6.979,0,0,1-1.843,1.842c-1.711,1.382-4.211,2.172-8.159,2.172l-1.053-.2v-8.291l1.053-.2c4.8,0,6.054-1.382,6.251-2.37,0.395-2.105.987-8.357,1.25-10.528h7.436l-1.053,11.581a15.474,15.474,0,0,0,7.041,1.317Zm-15.53-21.32a25.479,25.479,0,0,1,4.738-4.936,33.7,33.7,0,0,1,4.935,4.936,40.227,40.227,0,0,1-4.935,4.869A29.033,29.033,0,0,1,326.816,592.656ZM370.508,611.8c0,4.541-2.172,11.121-11.779,11.121-3.422,0-7.7-.855-10.792-3.159-1.447,1.711-3.355,2.7-6.646,2.7l-1.052-.2v-8.291l1.052-.2c4.212,0,5.067-1.053,7.239-5.133,2.829-5.659,5.856-10.66,11.449-10.66C366.428,597.986,370.508,605.948,370.508,611.8Zm-6.515.856c0-1.843-2.3-5.922-5.527-5.922-2.83,0-4.935,2.236-6.646,5.461a2.766,2.766,0,0,1-.263.658,17.043,17.043,0,0,0,7.238,1.513C361.953,614.37,363.993,613.581,363.993,612.66Zm70.6-2.633a11.1,11.1,0,0,1-4.409,9.411c-3.948,2.895-11.055,3.684-20.728,3.684-17.438,0-19.543-8.356-19.543-14.542a25.1,25.1,0,0,1,2.763-11.055h6.975s-2.829,4.87-2.829,9.015c0,4.672,2.9,7.9,14.608,7.9,9.41,0,15.793-1.316,15.793-3.027a109.311,109.311,0,0,0-1.777-13.753l7.5-1.381A83.4,83.4,0,0,1,434.6,610.027ZM404.064,594.1a27.6,27.6,0,0,1,4.474-4.672,44.836,44.836,0,0,1,3.816,3.817,36.139,36.139,0,0,1,3.817-3.817,37.812,37.812,0,0,1,4.54,4.672,40.267,40.267,0,0,1-4.54,4.606,36.074,36.074,0,0,1-3.817-3.816,44.737,44.737,0,0,1-3.816,3.816A28.819,28.819,0,0,1,404.064,594.1Zm71.721,19.873v8.291l-1.052.2c-6.186,0-10.529-1.71-12.437-8.62a11.4,11.4,0,0,1-2.961,4.014c-3.027,2.3-9.87,5.2-19.675,5.725l-1.316-8.488a64.635,64.635,0,0,0,12.831-2.172,18.633,18.633,0,0,0-.46-4.014c-1.119-4.672-3.225-9.607-12.437-18.557l4.8-6.514c8.949,8.225,12.568,15.53,13.621,21.649a28.407,28.407,0,0,1,.461,5.067,16.9,16.9,0,0,0,4.145-3.027c-0.066-1.251-.132-2.566-0.132-4.014V577.784l7.7-.46v30.137c0,5.067.856,6.318,5.857,6.318Zm20.923,0v8.291l-1.053.2c-4.145,0-8.291-.526-10.923-4.014a6.989,6.989,0,0,1-1.842,1.842c-1.712,1.382-4.212,2.172-8.16,2.172l-1.053-.2v-8.291l1.053-.2c4.8,0,6.054-1.382,6.251-2.37,0.395-2.105.987-8.357,1.25-10.528h7.436l-1.053,11.581a15.474,15.474,0,0,0,7.041,1.317Zm-4.146,16.254a38.086,38.086,0,0,1-4.408,4.474,33.693,33.693,0,0,1-3.685-3.685,48.548,48.548,0,0,1-3.751,3.685,30.548,30.548,0,0,1-4.343-4.474,28.985,28.985,0,0,1,4.343-4.542,48.67,48.67,0,0,1,3.751,3.686,33.754,33.754,0,0,1,3.685-3.686A35.624,35.624,0,0,1,492.562,630.23ZM524.87,611.8c0,4.541-2.171,11.121-11.779,11.121-3.422,0-7.7-.855-10.792-3.159-1.447,1.711-3.355,2.7-6.645,2.7l-1.053-.2v-8.291l1.053-.2c4.211,0,5.066-1.053,7.238-5.133,2.829-5.659,5.856-10.66,11.45-10.66C520.79,597.986,524.87,605.948,524.87,611.8Zm-6.515.856c0-1.843-2.3-5.922-5.527-5.922-2.83,0-4.935,2.236-6.646,5.461a2.725,2.725,0,0,1-.263.658,17.043,17.043,0,0,0,7.238,1.513C516.315,614.37,518.355,613.581,518.355,612.66Zm33.559,1.316v8.291l-1.053.2c-3.422,0-5.791-.987-7.568-2.763a3.354,3.354,0,0,1-.131.79c-1.251,5.987-5.331,14.871-15.267,14.871a9.63,9.63,0,0,1-4.8-1.119l-0.526-8.292a13.525,13.525,0,0,0,4.672.725c6.647,0,9.542-5.922,9.542-11.647,0-1.25-1.316-5.528-2.764-12.3l7.5-1.251,1.447,6.91c0.987,3.026,2.5,5.4,7.9,5.4Zm-19.149-20.334a25.449,25.449,0,0,1,4.737-4.934,33.724,33.724,0,0,1,4.936,4.934,40.24,40.24,0,0,1-4.936,4.87A28.986,28.986,0,0,1,532.765,593.642Zm17.107,28.625v-8.291l1.053-.2c4.54,0,6.119-.659,6.119-2.041V577.784l7.7-.46v30.334c0,6.384-2.3,10.266-5,12.371-1.382,1.119-4.079,2.435-8.817,2.435Zm21.581-44.483,7.7-.46v45.14h-7.7v-44.68Zm52.311,37.705c0,9.673-4.343,19.873-15.661,19.873a17.659,17.659,0,0,1-8.028-1.58l-0.264-7.567a25.366,25.366,0,0,0,8.16,1.251c6.449,0,9.344-3.488,10.068-7.305a13.925,13.925,0,0,1-7.765,2.3c-6.251,0-10.265-3.289-10.265-10.4,0-6.12,4.87-14.082,11.911-14.082C619.684,597.986,623.764,607.791,623.764,615.489Zm-6.449-2.3c-1.053-3.159-3.356-6.448-7.107-6.448a6.056,6.056,0,0,0-5.724,5.33c0,1.645,3.026,2.105,5.527,2.105A28.268,28.268,0,0,0,617.315,613.186Zm51.322,7.3c-6.053,1.052-15.858,2.236-24.413,2.895l-0.592-7.9c1.448-.2,3.093-0.329,4.541-0.46a7.83,7.83,0,0,1-1.843-5.133c0-6.054,4.541-11.515,10.923-11.515a10.81,10.81,0,0,1,7.568,2.895l-2.5,6.778a11.278,11.278,0,0,0-5.264-1.382c-3.553.066-5.4,2.237-5.4,3.553,0,1.119,1.514,3.422,6.515,3.422a77.719,77.719,0,0,0,9.738-1.119Zm40.2-6.515v8.291l-1.052.2c-6.186,0-10.529-1.71-12.437-8.62a11.4,11.4,0,0,1-2.961,4.014c-3.027,2.3-9.871,5.2-19.675,5.725L671.4,615.1a64.648,64.648,0,0,0,12.831-2.172,18.631,18.631,0,0,0-.461-4.014c-1.118-4.672-3.224-9.607-12.436-18.557l4.8-6.514c8.948,8.225,12.568,15.53,13.621,21.649a28.493,28.493,0,0,1,.46,5.067,16.89,16.89,0,0,0,4.146-3.027c-0.066-1.251-.132-2.566-0.132-4.014V577.784l7.7-.46v30.137c0,5.067.856,6.318,5.857,6.318ZM737,611.8c0,4.541-2.171,11.121-11.779,11.121-3.421,0-7.7-.855-10.791-3.159-1.448,1.711-3.356,2.7-6.646,2.7l-1.053-.2v-8.291l1.053-.2c4.211,0,5.066-1.053,7.238-5.133,2.829-5.659,5.857-10.66,11.45-10.66C732.922,597.986,737,605.948,737,611.8Zm-6.514.856c0-1.843-2.3-5.922-5.528-5.922-2.829,0-4.935,2.236-6.646,5.461a2.725,2.725,0,0,1-.263.658,17.043,17.043,0,0,0,7.238,1.513C728.448,614.37,730.488,613.581,730.488,612.66Zm33.557,1.316v8.291l-1.052.2c-3.422,0-5.791-.987-7.568-2.763a3.354,3.354,0,0,1-.131.79c-1.251,5.987-5.33,14.871-15.267,14.871a9.628,9.628,0,0,1-4.8-1.119l-0.526-8.292a13.511,13.511,0,0,0,4.671.725c6.647,0,9.542-5.922,9.542-11.647,0-1.25-1.316-5.528-2.764-12.3l7.5-1.251,1.447,6.91c0.987,3.026,2.5,5.4,7.9,5.4ZM744.9,593.642a25.471,25.471,0,0,1,4.738-4.934,33.744,33.744,0,0,1,4.935,4.934,40.269,40.269,0,0,1-4.935,4.87A29.015,29.015,0,0,1,744.9,593.642Zm28.622,28.822H762v-8.685h11.515v8.685Zm-2.107-.2v-8.291l1.054-.2c4.54,0,6.119-.659,6.119-2.041V577.784l7.7-.46v30.334c0,6.384-2.3,10.266-5,12.371-1.382,1.119-4.08,2.435-8.817,2.435Zm21.582-44.483,7.7-.46v45.14h-7.7v-44.68Z" transform="translate(-196.625 -577.312)"/>
</svg>
